<?xml version="1.0" encoding="utf-8"?>
<!-- Generator: Adobe Illustrator 23.0.6, SVG Export Plug-In . SVG Version: 6.00 Build 0)  -->
<svg version="1.1" id="Layer_1" xmlns="http://www.w3.org/2000/svg" xmlns:xlink="http://www.w3.org/1999/xlink" x="0px" y="0px"
	 viewBox="0 0 43.9 52.7" style="enable-background:new 0 0 43.9 52.7;" xml:space="preserve">
<style type="text/css">
	.st0{fill-rule:evenodd;clip-rule:evenodd;fill:#59D9A4;}
</style>
<path id="Forma_1" class="st0" d="M43.7,44.4l-3.8-6.3c-1.7-2.9-2.7-6.2-2.7-9.6v-5.5c0.1-8.5-6.8-15.4-15.2-15.5
	C13.6,7.5,6.6,14.3,6.6,22.8c0,0.1,0,0.2,0,0.2v5.5c0,3.4-0.9,6.7-2.7,9.6l-3.8,6.3C-0.2,45,0,45.6,0.5,45.9
	c0.2,0.1,0.4,0.2,0.6,0.2h41.7c0.6,0,1.1-0.5,1.1-1.1C43.9,44.8,43.8,44.6,43.7,44.4z M3,43.9l2.8-4.6c1.9-3.2,3-7,3-10.7V23
	C8.7,15.8,14.5,9.8,21.8,9.8c7.3-0.1,13.2,5.8,13.3,13.1c0,0.1,0,0.2,0,0.2v5.5c0,3.8,1,7.5,3,10.7l2.8,4.6H3z M21.9,0
	c-2.4,0-4.4,2-4.4,4.4v4.4c0,0.6,0.4,1.1,1,1.2c0.6,0,1.1-0.4,1.2-1c0-0.1,0-0.1,0-0.2V4.4c0-1.2,1-2.2,2.2-2.2c1.2,0,2.2,1,2.2,2.2
	v4.4c0,0.6,0.4,1.1,1,1.2c0.6,0,1.1-0.4,1.2-1c0-0.1,0-0.1,0-0.2V4.4C26.3,2,24.4,0,21.9,0L21.9,0z M26.7,44.4
	c-0.3-0.5-1-0.7-1.5-0.4c-0.5,0.3-0.7,1-0.4,1.5l0,0c0.9,1.6,0.4,3.6-1.2,4.5C22,51,20,50.4,19.1,48.9c-0.6-1-0.6-2.3,0-3.3
	c0.3-0.5,0.1-1.2-0.4-1.5c-0.5-0.3-1.2-0.1-1.5,0.4c-1.5,2.6-0.6,6,2,7.5c2.6,1.5,6,0.6,7.5-2C27.7,48.2,27.7,46.1,26.7,44.4
	L26.7,44.4z"/>
</svg>
