<svg id="groups-blue" xmlns="http://www.w3.org/2000/svg" width="56.737" height="56.804" viewBox="0 0 56.737 56.804">
  <g id="Group_1448" data-name="Group 1448" transform="translate(1.5 1.5)">
    <path id="Path_2006" data-name="Path 2006" d="M51.36,14.4a27.152,27.152,0,1,1-5.347-6.283" transform="translate(-1.5 -1.5)" fill="rgba(142,102,102,0)" stroke="#FFFFFF" stroke-linecap="round" stroke-miterlimit="10" stroke-width="3"/>
    <circle id="Ellipse_399" data-name="Ellipse 399" cx="2.941" cy="2.941" r="2.941" transform="translate(41.105 4.077)" fill="#FFFFFF"/>
  </g>
  <g id="Group_1449" data-name="Group 1449" transform="translate(9.841 10.994)">
    <path id="Path_2007" data-name="Path 2007" d="M24.855,48.555a6.727,6.727,0,0,0-4.385-4.57,6.292,6.292,0,0,0-3.211-.247,7.042,7.042,0,0,0-3.4,1.668,6.76,6.76,0,0,0-2.038,3.582c-.062.309-.062.556-.124.865v3.273c.062.309.309.432.556.618a5.242,5.242,0,0,0,1.359.556,17.474,17.474,0,0,0,4.014.556c.865,0,1.791,0,2.656-.062a17.822,17.822,0,0,0,1.791-.247.133.133,0,0,0,.124-.124,1.36,1.36,0,0,1,.062-.494,9.6,9.6,0,0,1,.432-1.915,7.861,7.861,0,0,1,2.1-3.15A.557.557,0,0,0,24.855,48.555Z" transform="translate(-11.7 -25.086)" fill="#FFFFFF"/>
    <path id="Path_2008" data-name="Path 2008" d="M63.593,49.562a7.107,7.107,0,0,0-.926-2.717,6.614,6.614,0,0,0-6.608-3.088A6.548,6.548,0,0,0,52.6,45.3a6.411,6.411,0,0,0-2.1,3.273c0,.124,0,.185.062.247a7.273,7.273,0,0,1,1.42,1.668A6.855,6.855,0,0,1,52.97,52.9a5.608,5.608,0,0,1,.185,1.42c0,.124,0,.185.124.185a14.1,14.1,0,0,0,2.779.247h1.853a19.243,19.243,0,0,0,2.717-.309,8.13,8.13,0,0,0,2.347-.8,1.1,1.1,0,0,0,.556-.618V49.747C63.593,49.747,63.593,49.624,63.593,49.562Z" transform="translate(-26.537 -25.105)" fill="#FFFFFF"/>
    <path id="Path_2009" data-name="Path 2009" d="M44.264,58.72v-1.3a6.6,6.6,0,0,0-.185-1.544,6.333,6.333,0,0,0-2.1-3.335A6.422,6.422,0,0,0,38.705,51l-1.05,1.42,1.235,5.188-1.42,2.1-1.3-2.1,1.112-5.126-1.173-1.359a5.607,5.607,0,0,0-1.915.741,6.937,6.937,0,0,0-2.9,3.335,6.259,6.259,0,0,0-.494,2.594V60.14a.986.986,0,0,0,.494.865,5.665,5.665,0,0,0,1.42.556,17.475,17.475,0,0,0,4.014.556c.926,0,1.915,0,2.841-.062a12.646,12.646,0,0,0,2.594-.432,3.972,3.972,0,0,0,1.482-.618.89.89,0,0,0,.494-.8,6.265,6.265,0,0,0,.124-1.482Z" transform="translate(-19.004 -27.902)" fill="#FFFFFF"/>
    <path id="Path_2010" data-name="Path 2010" d="M19.846,36.993a4.481,4.481,0,0,0,4.447-4.508A4.415,4.415,0,0,0,19.846,28.1,4.468,4.468,0,0,0,15.4,32.546,4.39,4.39,0,0,0,19.846,36.993Z" transform="translate(-13.114 -19.144)" fill="#FFFFFF"/>
    <path id="Path_2011" data-name="Path 2011" d="M53.8,32.547a4.447,4.447,0,0,0,8.893.062,4.447,4.447,0,1,0-8.893-.062Z" transform="translate(-27.799 -19.145)" fill="#FFFFFF"/>
    <path id="Path_2012" data-name="Path 2012" d="M34.5,39.746a4.447,4.447,0,0,0,8.893.062,4.447,4.447,0,1,0-8.893-.062Z" transform="translate(-20.419 -21.897)" fill="#FFFFFF"/>
    <path id="Path_2013" data-name="Path 2013" d="M48.806,21.011A3.706,3.706,0,1,0,45.1,17.306,3.677,3.677,0,0,0,48.806,21.011Z" transform="translate(-24.472 -13.6)" fill="#FFFFFF"/>
    <path id="Path_2014" data-name="Path 2014" d="M29.806,21.011A3.706,3.706,0,1,0,26.1,17.306,3.677,3.677,0,0,0,29.806,21.011Z" transform="translate(-17.207 -13.6)" fill="#FFFFFF"/>
    <path id="Path_2015" data-name="Path 2015" d="M43.2,30.622a5.612,5.612,0,0,1,3.829,2.347,5.838,5.838,0,0,1,.926,5.126,3.01,3.01,0,0,1-.247.679h.062l.062-.062a7.945,7.945,0,0,1,2.47-2.038c.124-.062.124-.062,0-.185a5.77,5.77,0,0,1-1.359-1.668,6.027,6.027,0,0,1-.679-3.459,6.507,6.507,0,0,1,.741-2.347,6.377,6.377,0,0,1,1.3-1.544c.062-.062.062-.062,0-.124a5.567,5.567,0,0,0-1.976-.556,4.917,4.917,0,0,0-2.656.556,4.974,4.974,0,0,0-2.594,3.088C43.015,30.622,43.015,30.622,43.2,30.622Z" transform="translate(-23.685 -18.641)" fill="#FFFFFF"/>
    <path id="Path_2016" data-name="Path 2016" d="M33.854,27.86a5.107,5.107,0,0,0-2.47-.988,5.03,5.03,0,0,0-2.841.432c-.124.062-.124.062,0,.185A5.748,5.748,0,0,1,30.7,32.616a6.122,6.122,0,0,1-.8,2.47,4.885,4.885,0,0,1-1.3,1.482q-.185.093,0,.185h.062a8.333,8.333,0,0,1,2.162,1.729,3.425,3.425,0,0,1,.371.494c0-.062,0-.124-.062-.124a5.564,5.564,0,0,1-.371-3.459,6,6,0,0,1,.988-2.223,7.312,7.312,0,0,1,2.038-1.853,5.793,5.793,0,0,1,1.729-.618c.124,0,.124-.062.062-.185L35.4,29.96A4.006,4.006,0,0,0,33.854,27.86Z" transform="translate(-18.105 -18.658)" fill="#FFFFFF"/>
  </g>
</svg>
