<?xml version="1.0" encoding="utf-8"?>
<!-- Generator: Adobe Illustrator 23.1.0, SVG Export Plug-In . SVG Version: 6.00 Build 0)  -->
<svg version="1.1" id="Layer_1" xmlns="http://www.w3.org/2000/svg" x="0px" y="0px"
	 viewBox="0 0 24 24" style="enable-background:new 0 0 24 24;" xml:space="preserve">

	<path d="M22.9,0H1.1C0.5,0,0,0.5,0,1.1v15.8C0,17.5,0.5,18,1.1,18H18l6,6V1.1C24,0.5,23.5,0,22.9,0z M22,19.2L18.8,16H2V2h20V19.2z
		"/>
	<path d="M12,11c1.1,0,2-0.9,2-2s-0.9-2-2-2s-2,0.9-2,2S10.9,11,12,11z M12,8c0.6,0,1,0.4,1,1s-0.4,1-1,1s-1-0.4-1-1S11.4,8,12,8z"
	/>
	<path d="M7,11c1.1,0,2-0.9,2-2S8.1,7,7,7S5,7.9,5,9S5.9,11,7,11z M7,8c0.6,0,1,0.4,1,1s-0.4,1-1,1S6,9.6,6,9S6.4,8,7,8z"/>
	<path d="M17,11c1.1,0,2-0.9,2-2s-0.9-2-2-2s-2,0.9-2,2S15.9,11,17,11z M17,8c0.6,0,1,0.4,1,1s-0.4,1-1,1s-1-0.4-1-1S16.4,8,17,8z"
	/>

</svg>
