<?xml version="1.0" encoding="utf-8"?>
<!-- Generator: Adobe Illustrator 23.0.6, SVG Export Plug-In . SVG Version: 6.00 Build 0)  -->
<svg version="1.1" id="Layer_1" xmlns="http://www.w3.org/2000/svg" xmlns:xlink="http://www.w3.org/1999/xlink" x="0px" y="0px"
	 viewBox="0 0 52 52" style="enable-background:new 0 0 52 52;" xml:space="preserve">
<style type="text/css">
	.st0{fill-rule:evenodd;clip-rule:evenodd;fill:#59D9A4;}
</style>
<path id="Forma_1" class="st0" d="M51.4,48.3L38.9,35.8c7.7-9.4,6.3-23.1-3.1-30.8S12.6-1.3,5,8.1s-6.3,23.1,3.1,30.8
	c8.1,6.6,19.7,6.6,27.7,0l12.5,12.5c0.8,0.8,2.2,0.8,3.1,0S52.2,49.2,51.4,48.3z M21.9,39.5c-9.7,0-17.6-7.9-17.6-17.6
	c0-9.7,7.9-17.6,17.6-17.6c9.7,0,17.6,7.9,17.6,17.6c0,0,0,0,0,0C39.5,31.6,31.6,39.5,21.9,39.5z"/>
</svg>
